#!OML:ASF H:\Terrain\Patient Classification 1\Walking\liu\liu.ASF
:FULLY-SPECIFIED
:DEGREES
174
root 8.71793 16.2113 -0.126281 8.72398 -6.1283 -8.14962
lowerback -5.76083 4.2765 2.97529
upperback -0.471216 5.39143 4.18849
thorax 2.60337 2.70149 3.08772
lowerneck -18.5601 -5.46004 -14.1275
upperneck 19.4631 -6.80965 13.9945
head 10.2739 -2.6741 6.40644
rclavicle 3.84648e-014 -2.54444e-014
rhumerus -14.6456 31.1388 -78.2623
rradius 51.1725
rwrist -25.603
rhand -30.8278 -24.8576
rfingers 7.12502
rthumb -4.11681 -54.7976
lclavicle 3.84648e-014 -2.54444e-014
lhumerus -58.5308 -2.84131 84.7582
lradius 22.9063
lwrist 0.850915
lhand -11.8927 -24.2564
lfingers 7.12502
lthumb 14.1604 5.24102
rfemur 18.6457 5.82019 31.4824
rtibia -1.27222e-014
rfoot -12.9843 5.98262
rtoes -13.8506
lfemur -48.1156 2.73707 -8.12742
ltibia 22.1459
lfoot -14.0009 13.7241
ltoes -10.5522
175
root 8.74153 16.181 0.101771 8.84201 -6.2982 -7.87738
lowerback -6.114 4.37032 2.67922
upperback -0.440298 5.51899 4.04239
thorax 2.81521 2.76198 3.14312
lowerneck -18.4436 -5.50997 -14.0868
upperneck 19.4149 -6.88239 13.9098
head 10.2415 -2.71758 6.35369
rclavicle -2.05742e-014 -6.36111e-015
rhumerus -14.5583 31.1113 -78.2459
rradius 51.3381
rwrist -25.5432
rhand -31.1024 -25.4399
rfingers 7.12502
rthumb -4.38203 -55.3745
lclavicle -2.05742e-014 -6.36111e-015
lhumerus -58.3455 -1.62246 83.1989
lradius 21.8746
lwrist -0.494539
lhand -12.2566 -24.5369
lfingers 7.12502
lthumb 13.8097 4.9847
rfemur 19.3917 5.9179 30.9632
rtibia 5.08889e-014
rfoot -12.7428 6.10861
rtoes -14.3827
lfemur -48.4762 3.82388 -9.34836
ltibia 23.0798
lfoot -13.4867 12.48
ltoes -10.4397
176
root 8.76984 16.1446 0.348524 8.94557 -6.3347 -7.66943
lowerback -6.72547 4.41703 2.52238
upperback -0.295016 5.55722 3.90009
thorax 3.30525 2.77717 3.14997
lowerneck -18.3302 -5.5696 -14.2402
upperneck 19.1502 -6.99502 14.255
head 10.1659 -2.74867 6.4842
rclavicle -6.68413e-014 -4.41302e-014
rhumerus -14.2028 31.1917 -78.1019
rradius 51.3764
rwrist -25.6331
rhand -32.0275 -27.5831
rfingers 7.12502
rthumb -5.27532 -57.4974
lclavicle -6.68413e-014 -4.41302e-014
lhumerus -57.9692 -0.23169 81.4449
lradius 20.8138
lwrist -1.92093
lhand -12.0875 -24.6384
lfingers 7.12502
lthumb 13.9727 4.87205
rfemur 20.1618 5.89953 30.5011
rtibia -1.90833e-014
rfoot -12.2106 6.26388
rtoes -16.3277
lfemur -48.7556 4.46302 -10.267
ltibia 24.1708
lfoot -13.5246 11.2946
ltoes -10.3567
177
root 8.8036 16.0983 0.598967 8.99742 -6.11475 -7.94735
lowerback -7.1016 4.41653 2.8833
upperback -0.240382 5.50258 3.93048
thorax 3.6052 2.75311 3.01576
lowerneck -18.3724 -5.63869 -14.2331
upperneck 19.0219 -7.10718 14.3803
head 10.1527 -2.7852 6.50792
rclavicle -5.65294e-014 -1.98785e-014
rhumerus -14.3248 31.3469 -78.1079
rradius 51.5343
rwrist -26.0408
rhand -32.4212 -27.5674
rfingers 7.12502
rthumb -5.65544 -57.472
lclavicle -5.65294e-014 -1.98785e-014
lhumerus -57.922 1.21359 79.6323
lradius 19.9694
lwrist -3.64512
lhand -11.6445 -24.9864
lfingers 7.12502
lthumb 14.3995 4.49407
rfemur 21.017 5.67919 30.6086
rtibia 3.81667e-014
rfoot -11.5173 6.29431
rtoes -19.2826
lfemur -49.0608 4.75524 -10.4243
ltibia 25.4581
lfoot -13.9335 10.3362
ltoes -9.89388
178
root 8.83476 16.0513 0.837419 9.10808 -5.98817 -8.4172
lowerback -7.18474 4.48319 3.40016
upperback -0.352464 5.54615 3.98731
thorax 3.5776 2.78162 2.7964
lowerneck -18.3608 -5.68919 -14.1102
upperneck 19.0234 -7.20012 14.3111
head 10.1587 -2.82649 6.44548
rclavicle -3.56322e-014 -1.03368e-014
rhumerus -14.8471 31.3534 -78.3181
rradius 51.8038
rwrist -26.3182
rhand -31.7937 -26.2649
rfingers 7.12502
rthumb -5.0495 -56.1848
lclavicle -3.56322e-014 -1.03368e-014
lhumerus -58.1622 2.52419 77.7798
lradius 19.4176
lwrist -5.57298
lhand -11.254 -25.0803
lfingers 7.12502
lthumb 14.7758 4.37298
rfemur 21.7696 5.57746 30.9337
rtibia -3.49861e-014
rfoot -10.6916 6.27733
rtoes -19.9615
lfemur -49.5078 5.44282 -10.5475
ltibia 26.9984
lfoot -13.8092 9.29597
ltoes -13.906
179
root 8.86371 16.0059 1.07394 9.33807 -5.85795 -8.70896
lowerback -7.34784 4.53283 3.6464
upperback -0.511518 5.58733 4.03012
thorax 3.52169 2.80464 2.71539
lowerneck -18.3963 -5.74331 -14.0334
upperneck 19.1605 -7.26975 14.15
head 10.2151 -2.86823 6.36496
rclavicle -4.87022e-015 3.18055e-015
rhumerus -15.3735 31.1116 -78.5254
rradius 52.1356
rwrist -26.2818
rhand -31.5081 -25.8401
rfingers 7.12502
rthumb -4.77373 -55.7663
lclavicle -4.87022e-015 3.18055e-015
lhumerus -58.2428 3.72441 76.1603
lradius 18.7402
lwrist -7.03389
lhand -10.3124 -24.1338
lfingers 7.12502
lthumb 15.6828 5.25062
rfemur 22.3558 5.48543 31.0249
rtibia 1.59028e-014
rfoot -9.62622 6.50333
rtoes -18.2239
lfemur -50.0191 5.90422 -10.7933
ltibia 28.6467
lfoot -13.3264 8.02636
ltoes -18.59
180
root 8.8933 15.9682 1.32041 9.6282 -5.7208 -9.2225
lowerback -7.60189 4.57575 4.0592
upperback -0.737883 5.59842 4.16697
thorax 3.45341 2.81348 2.64195
lowerneck -18.2571 -5.74695 -14.0473
upperneck 19.3728 -7.31056 14.1466
head 10.2714 -2.8933 6.3687
rclavicle -4.68138e-014 -4.13472e-014
rhumerus -16.1098 30.9081 -78.8455
rradius 52.3068
rwrist -26.2409
rhand -31.6773 -25.7985
rfingers 7.12502
rthumb -4.93715 -55.721
lclavicle -4.68138e-014 -4.13472e-014
lhumerus -58.4546 4.85068 74.6825
lradius 17.9423
lwrist -8.2753
lhand -9.75506 -23.7627
lfingers 7.12502
lthumb 16.2195 5.57877
rfemur 22.9324 5.43291 31.3385
rtibia 2.8625e-014
rfoot -8.41353 6.59814
rtoes -16.9608
lfemur -50.5557 5.99006 -10.4593
ltibia 30.2432
lfoot -11.3278 8.711
ltoes -19.4938
